<?xml version="1.0" standalone="no"?>
<!DOCTYPE svg PUBLIC "-//W3C//DTD SVG 20010904//EN"
 "http://www.w3.org/TR/2001/REC-SVG-20010904/DTD/svg10.dtd">
<svg version="1.0" xmlns="http://www.w3.org/2000/svg"
 width="926.000000pt" height="926.000000pt" viewBox="0 0 926.000000 926.000000"
 preserveAspectRatio="xMidYMid meet">
<metadata>
Created by potrace 1.14, written by Peter Selinger 2001-2017
</metadata>
<g transform="translate(0.000000,926.000000) scale(0.100000,-0.100000)"
fill="#000000" stroke="none">
<path d="M4980 5966 c0 -24 47 -91 83 -117 65 -47 83 -94 50 -131 -23 -25 -12
-31 28 -14 42 17 47 15 82 -46 24 -41 94 -98 120 -98 16 0 4 29 -26 63 -44 50
-81 121 -74 141 4 9 20 24 37 35 40 24 22 38 -21 16 -49 -26 -72 -15 -202 95
-61 52 -77 63 -77 56z"/>
<path d="M4489 4586 c0 0 -2 -9 -4 -19 -5 -29 -13 -32 -34 -13 -11 10 -29 16
-43 13 -20 -4 -19 -4 6 -6 43 -2 21 -16 -25 -17 -24 0 -46 -7 -57 -18 -16 -18
-16 -18 8 -7 27 12 23 9 -44 -34 -35 -24 -41 -40 -31 -101 4 -31 12 -45 26
-49 14 -5 19 -13 16 -26 -3 -10 -2 -17 3 -14 4 2 10 -9 14 -26 3 -17 10 -28
14 -25 11 7 2 -56 -10 -71 -6 -7 -11 -27 -13 -45 -6 -57 -17 -92 -36 -113 -36
-40 -47 -86 -47 -196 0 -59 -5 -115 -11 -127 -15 -28 -14 -89 2 -95 7 -4 3 -8
-10 -12 -12 -4 -24 -15 -27 -24 -6 -22 -20 -94 -20 -106 -1 -5 -5 -13 -9 -16
-4 -3 -9 -17 -11 -30 -1 -13 -5 -31 -8 -39 -3 -8 -10 -33 -16 -55 -14 -54 -42
-129 -51 -135 -8 -6 -41 -57 -41 -65 0 -3 5 -5 11 -5 5 0 7 4 4 10 -3 6 1 7 9
4 23 -9 20 -21 -6 -28 -21 -5 -23 -11 -24 -71 0 -36 -6 -71 -12 -77 -7 -7 -12
-18 -12 -24 0 -7 -5 -25 -12 -41 -6 -15 -10 -33 -9 -40 1 -6 -4 -15 -10 -19
-12 -7 -12 -3 9 79 6 21 6 37 1 37 -5 0 -9 -8 -9 -18 0 -10 -5 -23 -11 -29
-15 -15 -21 -84 -9 -103 9 -13 12 -13 21 3 11 18 29 15 29 -6 0 -8 -3 -7 -9 2
-7 10 -11 6 -16 -17 -9 -42 -29 -56 -75 -54 -21 2 -41 -2 -45 -8 -4 -7 -12 -7
-25 0 -10 5 -38 10 -62 10 -53 0 -81 15 -58 30 8 5 23 10 33 10 26 0 21 35 -8
48 -34 16 -34 16 -45 -10 -7 -18 -9 -12 -9 31 -1 43 2 52 14 47 9 -3 20 3 27
14 7 11 24 20 38 20 20 0 22 2 10 10 -10 7 -12 12 -4 18 7 4 8 15 3 27 -6 17
-8 17 -8 3 -1 -14 -10 -18 -43 -19 -40 -1 -41 -2 -13 -9 l30 -8 -28 -1 c-16 0
-37 -6 -48 -11 -13 -8 -25 -7 -39 0 -15 8 -20 8 -20 -2 0 -7 -20 -22 -43 -33
-34 -16 -38 -20 -21 -23 12 -2 24 -12 27 -23 3 -10 12 -19 21 -19 9 0 16 -8
16 -20 0 -13 -7 -20 -19 -20 -10 0 -21 9 -24 20 -7 27 -30 25 -42 -2 -14 -32
-50 -36 -52 -6 0 13 -6 35 -12 51 -9 23 -16 27 -51 27 -36 0 -40 -2 -40 -26 0
-14 4 -23 10 -19 6 3 10 13 10 21 0 9 11 14 30 14 26 0 30 -4 30 -28 0 -26 -2
-27 -40 -24 -32 3 -40 1 -40 -12 0 -9 6 -16 13 -16 18 -1 48 -46 41 -63 -9
-26 -75 -38 -208 -39 -53 -1 -81 3 -84 10 -2 7 -9 12 -15 12 -7 0 -12 14 -12
31 0 28 6 34 50 55 28 13 56 23 63 24 7 0 10 5 7 10 -4 6 -11 8 -16 4 -6 -3
-27 -3 -47 1 l-37 8 30 13 30 13 -29 1 c-16 0 -38 7 -48 17 -17 15 -19 15 -38
-2 -19 -18 -20 -17 -20 7 0 14 9 33 20 43 19 17 21 17 40 0 11 -10 20 -14 20
-8 0 6 30 13 67 17 45 5 71 12 79 24 13 16 13 16 14 0 0 -12 8 -18 22 -18 l22
0 -21 21 c-19 19 -31 22 -102 20 -61 -2 -81 1 -81 11 0 9 -3 9 -10 -2 -5 -8
-7 -23 -4 -32 3 -10 2 -18 -2 -18 -4 0 -13 8 -20 18 -12 15 -15 15 -23 2 -6
-8 -16 -15 -23 -16 -7 0 -23 -2 -35 -2 -13 -1 -23 -9 -23 -17 0 -8 -4 -15 -10
-15 -5 0 -10 5 -10 11 0 17 -28 40 -35 29 -3 -5 -16 -9 -28 -8 -12 0 -38 -2
-59 -6 -31 -7 -37 -5 -43 13 -7 24 -16 26 -33 9 -10 -10 -15 -10 -21 1 -6 9
-16 11 -27 7 -16 -6 -16 -8 -4 -16 12 -8 11 -10 -6 -10 -12 0 -24 6 -27 14 -3
8 -19 17 -36 21 -22 5 -36 17 -47 41 -9 19 -14 37 -12 40 5 4 54 14 150 30 43
7 67 29 51 45 -16 16 -48 6 -47 -14 1 -9 -2 -17 -7 -17 -5 0 -9 9 -9 20 0 17
-7 20 -40 20 -32 0 -40 -4 -40 -19 0 -10 -7 -24 -16 -31 -13 -11 -16 -10 -21
8 -3 13 -13 22 -24 22 -21 0 -26 -16 -7 -22 9 -3 9 -6 0 -12 -7 -4 -12 -2 -12
3 0 6 -9 11 -19 11 -11 0 -23 5 -26 10 -11 17 -38 12 -31 -6 6 -15 4 -15 -18
0 -31 20 -55 21 -62 2 -4 -12 -12 -12 -50 0 -24 7 -51 11 -59 7 -8 -3 -27 2
-41 12 -14 9 -55 19 -93 22 -57 5 -75 2 -117 -18 -28 -13 -69 -24 -95 -24 -38
-1 -51 -6 -73 -30 -19 -22 -28 -27 -34 -17 -7 10 -17 9 -51 -3 -24 -8 -47 -12
-53 -9 -13 8 -58 -4 -58 -16 0 -6 8 -10 18 -11 11 0 12 -2 4 -6 -7 -3 -18 0
-26 6 -8 7 -28 8 -57 2 -24 -5 -38 -9 -31 -10 6 -1 12 -6 12 -11 0 -6 -15 -8
-40 -4 -29 5 -40 3 -40 -6 0 -7 -7 -10 -14 -7 -8 3 -43 -5 -77 -19 -38 -14
-83 -24 -115 -24 -29 0 -65 -5 -80 -10 -16 -7 -30 -7 -33 -2 -3 5 -23 11 -43
14 -35 4 -38 2 -39 -22 -2 -22 -2 -23 -6 -3 -5 23 -24 31 -61 25 -25 -5 -30
-22 -7 -22 18 0 20 -30 2 -52 -13 -16 -85 -34 -182 -44 -33 -4 -63 -12 -67
-18 -5 -7 -14 -3 -28 11 -35 38 -33 39 125 84 44 12 84 26 88 30 15 12 -50 21
-72 10 -25 -14 -54 -14 -46 -1 4 6 -6 10 -24 10 -37 0 -63 -9 -56 -20 8 -13
-13 -22 -27 -13 -7 4 -23 6 -35 4 -13 -1 -23 2 -23 8 0 6 -9 11 -20 11 -11 0
-20 -4 -20 -10 0 -5 -11 -10 -24 -10 -14 0 -28 -4 -31 -10 -8 -13 -135 -13
-155 0 -10 6 -20 3 -33 -11 -14 -15 -26 -18 -51 -14 -23 5 -44 0 -73 -15 -60
-31 -103 -10 -103 51 0 10 5 19 10 19 6 0 10 7 10 15 0 21 -27 19 -39 -2 -10
-17 -10 -17 -11 0 0 10 -8 17 -20 17 -11 0 -23 7 -26 15 -4 8 -12 15 -19 15
-7 0 -15 5 -17 10 -2 6 -12 -6 -23 -27 -11 -21 -28 -44 -37 -51 -15 -11 -18
-29 -18 -111 l0 -98 68 11 c68 12 85 12 136 0 18 -4 31 -2 36 6 12 20 32 1 24
-23 -9 -28 -22 -40 -64 -57 -19 -8 -37 -16 -40 -19 -8 -10 -73 -30 -117 -37
l-43 -7 0 -1298 0 -1299 4630 0 4630 0 0 1803 0 1803 -39 -4 c-35 -4 -40 -1
-55 29 -21 42 -20 49 5 49 11 0 28 7 36 16 9 8 24 13 34 11 17 -5 19 1 19 49
0 30 -4 54 -10 54 -5 0 -10 6 -10 14 0 8 -17 23 -37 33 -21 10 -37 23 -37 28
2 17 -32 34 -54 28 -12 -3 -22 -12 -22 -19 0 -8 -9 -14 -20 -14 -11 0 -20 -7
-20 -16 0 -8 -4 -12 -10 -9 -5 3 -10 15 -10 26 0 14 -7 19 -27 18 -27 0 -27
-1 -5 -9 27 -12 29 -40 2 -40 -12 0 -20 -7 -21 -17 0 -11 -5 -5 -11 12 -14 37
-24 45 -66 45 -26 0 -35 -5 -39 -20 -5 -17 -8 -18 -20 -8 -13 10 -20 7 -39
-16 l-24 -28 -18 22 c-12 14 -29 21 -57 22 -41 1 -66 -3 -75 -12 -36 -38 -74
-59 -95 -54 -27 7 -144 -47 -158 -73 -6 -9 -17 -13 -32 -9 -18 5 -28 -2 -48
-28 -22 -28 -33 -34 -67 -34 -22 0 -38 3 -35 8 6 9 -18 20 -57 25 -20 3 -31
-2 -38 -16 -6 -11 -15 -17 -20 -14 -5 3 -11 1 -15 -5 -3 -5 -19 -10 -36 -10
-19 0 -29 -5 -29 -15 0 -12 11 -15 50 -13 34 2 55 -3 66 -13 14 -15 12 -18
-22 -34 -42 -20 -165 -18 -172 3 -5 17 -58 15 -87 -4 -20 -13 -28 -13 -47 -3
-31 17 -119 17 -196 1 -35 -7 -66 -10 -71 -8 -12 8 -86 8 -216 1 -86 -5 -125
-11 -137 -22 -10 -9 -26 -13 -39 -10 -12 3 -32 1 -43 -5 -12 -6 -43 -13 -71
-14 -27 -1 -75 -6 -105 -9 -55 -7 -56 -7 -83 29 -24 30 -34 36 -67 36 -21 0
-41 6 -43 13 -4 10 -6 10 -6 0 -2 -26 -1 -28 16 -28 9 0 18 -5 20 -11 2 -7
-15 -14 -44 -17 -26 -4 -60 -9 -75 -13 -25 -6 -29 -2 -44 36 -12 30 -19 38
-25 28 -5 -7 -9 -9 -9 -3 0 5 -5 4 -12 -3 -8 -8 -8 -15 1 -26 6 -7 10 -20 9
-27 -5 -22 -58 -41 -92 -32 -17 4 -35 6 -40 4 -5 -1 -13 4 -17 11 -11 17 -101
16 -134 -2 -20 -11 -32 -11 -62 -1 -21 7 -47 11 -58 10 -11 -1 -48 -1 -82 -1
l-62 2 -4 38 c-3 33 -4 32 -3 -8 0 -43 -1 -45 -34 -51 -19 -4 -37 -6 -39 -3
-2 2 -10 -4 -17 -14 -12 -15 -15 -15 -23 -2 -11 16 -13 15 -29 -15 -6 -11 -12
-14 -12 -7 0 19 -28 14 -52 -10 -14 -14 -23 -18 -26 -10 -5 16 -69 15 -75 -1
-2 -6 -27 -20 -55 -30 -28 -10 -56 -25 -63 -33 -6 -8 -27 -14 -46 -14 -19 0
-41 -7 -50 -15 -8 -9 -23 -13 -32 -10 -9 2 -29 -2 -45 -10 -15 -8 -32 -12 -37
-9 -5 3 -9 -2 -9 -11 0 -23 -128 -15 -146 10 -13 18 -60 13 -49 -6 4 -5 -3 -9
-14 -9 -22 0 -26 -11 -34 -88 -3 -23 -2 -40 2 -38 4 3 7 -4 7 -14 0 -18 -2
-18 -20 2 -14 15 -16 23 -8 26 14 4 17 92 3 92 -6 0 -7 -16 -4 -35 3 -20 1
-41 -6 -49 -6 -7 -9 -21 -5 -30 3 -9 1 -16 -5 -16 -17 0 -13 93 7 152 42 121
52 157 52 187 0 18 4 40 10 50 6 11 6 30 0 50 -7 24 -4 39 13 72 16 31 19 43
10 46 -24 9 -15 52 13 66 18 9 23 16 15 21 -7 4 -18 3 -25 -4 -11 -9 -15 -2
-20 37 -3 26 -6 60 -6 75 0 55 -98 198 -150 217 -39 15 -90 21 -90 12 0 -10
-47 -8 -73 4 -9 4 -27 5 -38 2 -13 -3 -28 2 -40 14 -10 10 -26 19 -34 19 -9 0
-15 9 -15 22 0 12 -12 41 -26 65 -14 24 -26 57 -26 74 -1 16 -5 32 -10 35 -4
3 -8 32 -8 64 0 53 -2 59 -22 62 -12 2 -24 10 -26 18 -5 13 -3 13 12 1 14 -12
16 -12 10 2 -3 9 -19 20 -36 26 -16 6 -27 15 -24 20 3 5 -3 7 -14 4 -12 -3
-20 0 -20 6 0 7 -5 9 -12 5 -7 -4 -8 -3 -4 4 4 6 13 9 20 6 8 -3 17 -1 20 4 4
7 -40 25 -45 18z m4066 -866 c4 -11 11 -18 16 -15 14 9 11 -5 -5 -20 -12 -12
-16 -11 -30 4 -9 10 -14 25 -10 35 8 22 21 20 29 -4z m135 5 c0 -8 -4 -15 -9
-15 -5 0 -11 7 -15 15 -3 9 0 15 9 15 8 0 15 -7 15 -15z m-505 -215 c20 -32
-142 -73 -505 -130 -53 -8 -132 -24 -194 -38 -38 -9 -47 -32 -13 -32 14 0 53
-7 87 -16 57 -14 69 -14 141 0 44 9 88 16 99 16 26 0 26 -17 0 -25 -11 -4 -18
-10 -15 -15 3 -4 -19 -13 -48 -20 -97 -23 -124 -60 -45 -64 22 -1 33 -7 33
-16 0 -19 -79 -25 -146 -11 -58 13 -128 1 -198 -34 -25 -12 -64 -26 -86 -29
-22 -4 -59 -14 -83 -23 -44 -16 -49 -25 -54 -93 l-3 -35 -93 -9 c-85 -7 -94
-7 -107 10 -10 14 -10 22 -2 32 12 15 -2 28 -43 38 -37 10 -60 34 -60 63 0 24
4 27 40 28 45 2 92 23 133 58 23 21 29 36 33 83 3 31 5 72 5 90 -1 37 -4 35
97 51 43 7 87 21 110 35 43 28 163 52 304 61 54 3 126 12 160 20 74 16 443 20
453 5z m-197 -177 c-10 -2 -26 -2 -35 0 -10 3 -2 5 17 5 19 0 27 -2 18 -5z
m-75 -20 c-7 -2 -21 -2 -30 0 -10 3 -4 5 12 5 17 0 24 -2 18 -5z m-2713 -41
c0 -16 -42 -34 -53 -23 -8 8 -6 11 6 11 9 0 17 5 17 10 0 6 7 10 15 10 8 0 15
-3 15 -8z m420 -22 c0 -5 -4 -10 -10 -10 -5 0 -10 5 -10 10 0 6 5 10 10 10 6
0 10 -4 10 -10z m3468 -19 c11 -1 18 -51 7 -51 -15 0 -75 30 -75 38 0 14 9 19
33 17 12 -1 28 -3 35 -4z m-987 -45 c6 -19 4 -29 -7 -33 -21 -8 -17 -33 6 -33
28 0 25 -22 -7 -52 -33 -30 -63 -38 -158 -44 -38 -2 -81 -6 -95 -9 -87 -20
-142 -25 -160 -15 -24 13 -24 14 -4 45 16 24 66 55 89 55 7 0 18 7 26 16 10
13 10 19 0 36 -12 20 -6 41 7 22 4 -6 36 -12 72 -14 128 -6 140 -4 174 29 36
36 47 35 57 -3z m-1522 -22 c61 -7 61 -7 61 -39 0 -31 2 -33 45 -39 52 -8 66
-22 33 -35 -63 -23 -86 -28 -102 -19 -9 5 -23 5 -34 -1 -21 -11 -48 -58 -39
-67 3 -4 -3 -18 -14 -33 l-21 -26 39 -3 c21 -2 63 1 93 7 32 6 72 6 95 2 22
-5 33 -10 25 -11 -8 -2 -19 -4 -25 -5 -5 -2 -29 -3 -52 -4 -24 0 -43 -6 -43
-12 0 -10 104 -8 277 7 74 6 84 5 108 -14 l27 -22 -28 -12 c-18 -8 -87 -13
-184 -15 -85 -1 -185 -3 -221 -4 -36 -1 -70 0 -75 3 -5 3 -61 6 -125 7 -64 0
-130 6 -145 12 -33 13 -39 15 -114 25 -72 11 -137 11 -295 1 -71 -5 -272 -8
-445 -8 -228 0 -333 -4 -380 -14 -82 -17 -161 -29 -177 -26 -12 2 -18 -12 -13
-34 1 -5 -2 -7 -6 -3 -4 4 -13 3 -21 -3 -7 -6 -13 -8 -13 -4 0 4 7 13 16 20
11 7 17 29 19 64 1 28 5 55 9 58 3 4 6 2 6 -3 0 -12 190 -6 216 7 11 6 24 9
30 8 5 -2 77 0 159 4 83 4 222 10 310 13 88 3 176 10 196 15 20 5 100 10 177
10 123 1 143 4 158 20 9 10 37 21 63 24 85 11 142 28 131 39 -18 18 -11 26 21
26 26 0 29 -3 24 -20 -6 -17 -2 -20 30 -20 45 0 173 28 180 40 3 5 -10 13 -29
20 -18 6 -42 20 -52 31 -16 17 -16 22 -4 29 18 12 29 12 109 4z m151 -9 c10
-12 9 -16 -4 -21 -9 -3 -23 -3 -32 0 -13 5 -14 9 -4 21 7 8 16 15 20 15 4 0
13 -7 20 -15z m-1740 -25 c0 -5 -5 -10 -11 -10 -5 0 -7 5 -4 10 3 6 8 10 11
10 2 0 4 -4 4 -10z m34 -5 c-7 -17 14 -75 27 -75 4 0 20 5 36 11 25 9 31 7 50
-16 27 -30 29 -48 8 -65 -18 -15 -78 -6 -100 16 -13 14 -15 13 -15 -11 0 -15
-4 -24 -10 -20 -6 4 -8 11 -5 16 4 5 -5 9 -19 9 -14 0 -26 4 -26 10 0 5 6 7
13 5 6 -3 23 4 36 14 24 18 24 20 8 45 -17 26 -22 58 -10 69 10 11 13 8 7 -8z
m684 -4 c29 -25 28 -39 -3 -47 -41 -10 -75 3 -75 30 0 12 3 26 7 29 12 13 48
6 71 -12z m-751 3 c-3 -4 1 -13 9 -21 8 -8 11 -20 7 -26 -4 -6 -9 -2 -14 11
-6 17 -16 22 -41 21 -18 0 -27 -3 -20 -6 14 -6 16 -23 2 -23 -5 0 -19 9 -29
19 -20 20 -20 20 32 24 29 2 54 4 56 5 2 1 2 -1 -2 -4z m-2737 -14 c0 -5 -7
-10 -16 -10 -8 0 -12 5 -9 10 3 6 10 10 16 10 5 0 9 -4 9 -10z m2058 -30 c11
0 12 -3 3 -13 -6 -8 -8 -17 -4 -20 3 -4 -2 -7 -11 -7 -12 0 -16 5 -12 15 7 20
3 19 -18 -4 -12 -13 -13 -19 -4 -18 40 1 48 -4 48 -30 0 -39 -33 -187 -42
-191 -4 -2 -8 -11 -8 -20 0 -9 -5 -24 -10 -32 -13 -21 -7 38 7 65 14 27 45
166 38 173 -3 3 -5 -3 -6 -14 0 -11 -3 -13 -6 -6 -2 6 -9 10 -14 6 -5 -3 -9 1
-9 10 0 8 6 17 13 19 7 4 6 6 -4 6 -27 1 -30 -27 -6 -50 l22 -22 -26 7 c-24 5
-26 3 -21 -19 6 -31 -20 -34 -41 -5 -15 22 -29 17 -20 -8 4 -10 2 -13 -5 -8
-7 4 -12 2 -12 -3 0 -6 7 -11 15 -11 8 0 15 -5 15 -10 0 -6 -6 -10 -12 -9 -33
4 -35 -2 -33 -82 1 -57 6 -84 16 -90 10 -6 11 -9 1 -9 -7 0 -15 7 -18 15 -5
12 -10 12 -32 -2 l-27 -17 27 28 c24 25 27 33 21 75 -8 64 -8 59 22 125 20 47
29 57 36 45 8 -10 9 -8 4 9 -3 12 -2 22 3 22 14 0 21 37 10 48 -7 7 -3 12 11
17 12 3 29 18 38 32 17 26 17 26 27 4 5 -11 16 -21 24 -21z m777 20 c3 -5 2
-10 -4 -10 -5 0 -13 5 -16 10 -3 6 -2 10 4 10 5 0 13 -4 16 -10z m759 -13 c23
-19 27 -27 19 -42 -6 -10 -22 -19 -36 -21 -23 -2 -25 1 -29 42 -4 50 4 54 46
21z m-3154 3 c0 -5 -4 -10 -10 -10 -5 0 -10 5 -10 10 0 6 5 10 10 10 6 0 10
-4 10 -10z m2205 -66 c-12 -34 -14 -35 -15 -13 0 15 3 41 7 60 5 28 7 30 14
12 4 -12 2 -37 -6 -59z m-2385 40 c0 -8 -5 -12 -10 -9 -6 4 -8 11 -5 16 9 14
15 11 15 -7z m3040 -3 c0 -12 -28 -22 -34 -12 -3 5 -3 11 1 15 9 9 33 7 33 -3z
m-602 -38 c16 -16 15 -16 -8 -10 -14 4 -29 7 -33 7 -5 0 -5 5 -2 10 9 15 24
12 43 -7z m-28 -39 c0 -8 -4 -12 -10 -9 -5 3 -10 10 -10 16 0 5 5 9 10 9 6 0
10 -7 10 -16z m-4810 -40 c0 -14 -4 -23 -9 -20 -5 3 -7 15 -4 26 7 28 13 25
13 -6z m2960 -19 c0 -8 -4 -15 -10 -15 -5 0 -10 7 -10 15 0 8 5 15 10 15 6 0
10 -7 10 -15z m-160 -10 c0 -8 -4 -15 -10 -15 -5 0 -10 7 -10 15 0 8 5 15 10
15 6 0 10 -7 10 -15z m778 -93 c4 -50 -6 -53 -36 -12 -27 35 -28 47 -4 53 30
8 37 1 40 -41z m482 -3 c0 -11 -4 -18 -10 -14 -5 3 -7 12 -3 20 7 21 13 19 13
-6z m37 -11 c-3 -8 -6 -5 -6 6 -1 11 2 17 5 13 3 -3 4 -12 1 -19z m27 -64 c2
-32 2 -48 -1 -35 -7 36 -33 71 -52 70 -14 -1 -13 -2 2 -6 9 -2 17 -8 17 -13 0
-5 -7 -7 -15 -4 -9 4 -15 0 -15 -8 0 -17 30 -20 30 -4 0 6 5 3 11 -7 6 -10 8
-21 5 -24 -3 -4 -6 -2 -6 4 0 6 -12 8 -26 5 -24 -4 -25 -2 -22 29 3 30 6 34
31 34 17 -1 27 4 27 14 0 8 2 12 5 9 3 -3 7 -31 9 -64z m-3464 28 c0 -21 -46
-69 -57 -59 -3 4 -12 2 -20 -5 -7 -6 -38 -11 -69 -11 -30 0 -57 -4 -60 -9 -3
-4 -10 -5 -16 -2 -6 4 -5 10 3 15 10 6 6 9 -13 9 -47 0 -31 17 21 23 27 3 58
11 68 17 15 9 113 37 136 39 4 1 7 -7 7 -17z m680 -9 c25 -22 25 -35 1 -50
-40 -25 -91 23 -59 55 17 17 34 15 58 -5z m3410 -7 c0 -3 -4 -8 -10 -11 -5 -3
-10 -1 -10 4 0 6 5 11 10 11 6 0 10 -2 10 -4z m1388 -8 c-6 -18 -28 -21 -28
-4 0 9 7 16 16 16 9 0 14 -5 12 -12z m-2184 -24 c3 -8 1 -14 -4 -14 -6 0 -13
-1 -17 -2 -3 -2 -7 7 -8 19 -2 23 20 21 29 -3z m821 -6 c5 4 5 1 1 -6 -6 -9
15 -11 95 -9 79 2 105 0 116 -12 17 -17 125 -16 153 1 21 14 69 -17 70 -44 0
-13 8 -18 32 -18 17 0 29 -3 25 -6 -7 -7 -66 -16 -135 -19 -29 -2 -59 -9 -67
-15 -11 -10 -24 -8 -58 9 -24 12 -46 21 -50 21 -4 0 -10 -18 -13 -40 -9 -52
-31 -54 -26 -1 4 35 2 39 -25 43 -15 3 -45 5 -65 4 -22 -1 -38 3 -38 9 0 6 -9
11 -21 11 -15 0 -19 -5 -15 -19 2 -10 2 -16 -2 -12 -12 12 -8 114 4 104 6 -5
15 -5 19 -1z m-1385 -28 c-19 -13 -30 -13 -30 0 0 6 10 10 23 10 18 0 19 -2 7
-10z m747 -32 c-3 -8 -6 -5 -6 6 -1 11 2 17 5 13 3 -3 4 -12 1 -19z m0 -90
c-2 -13 -4 -3 -4 22 0 25 2 35 4 23 2 -13 2 -33 0 -45z m-1897 4 c0 -23 -27
-46 -87 -73 -37 -17 -78 -24 -178 -31 -87 -6 -131 -5 -133 2 -2 5 -10 10 -18
10 -16 0 -19 26 -5 35 5 3 43 10 83 15 78 9 143 23 218 45 69 20 120 19 120
-3z m1903 -57 c-3 -9 -8 -14 -10 -11 -3 3 -2 9 2 15 9 16 15 13 8 -4z m-1115
-19 c7 -8 -46 -18 -57 -11 -6 3 -11 2 -11 -4 0 -11 -59 -4 -74 10 -13 12 75
26 108 18 16 -5 31 -11 34 -13z m152 4 c0 -5 -12 -10 -27 -12 -43 -5 -113 3
-113 12 0 10 71 17 113 11 15 -2 27 -7 27 -11z m190 10 c0 -6 -30 -10 -72 -9
-52 1 -66 3 -48 9 36 12 120 12 120 0z m1337 -32 c-3 -7 -5 -2 -5 12 0 14 2
19 5 13 2 -7 2 -19 0 -25z m-546 -102 c-8 -16 -20 26 -19 69 l0 40 12 -50 c7
-27 10 -54 7 -59z m944 44 c18 -29 -23 -71 -83 -84 -37 -9 -43 8 -14 40 39 43
85 64 97 44z m515 -40 c0 -5 -15 -10 -32 -9 -31 1 -32 1 -8 9 35 11 40 11 40
0z m-4330 -21 c12 -9 13 -11 1 -16 -15 -6 -41 -32 -56 -56 -5 -9 -31 -22 -56
-28 -42 -11 -49 -11 -65 6 -13 13 -15 20 -6 23 6 2 12 9 12 17 0 21 29 38 88
51 32 7 59 13 62 13 3 0 12 -4 20 -10z m2829 -103 c1 -55 -6 -42 -12 24 -4 36
-3 48 3 35 5 -11 9 -38 9 -59z m293 -41 c3 -14 1 -25 -3 -25 -5 0 -9 11 -9 25
0 14 2 25 4 25 2 0 6 -11 8 -25z m-269 -62 c21 -67 30 -123 18 -123 -5 0 -14
28 -20 63 -6 34 -14 72 -17 85 -12 43 5 22 19 -25z m322 -54 c3 -69 2 -86 -5
-64 -21 66 -24 182 -4 162 3 -2 7 -46 9 -98z m242 39 c-3 -8 -6 -5 -6 6 -1 11
2 17 5 13 3 -3 4 -12 1 -19z m-290 -40 c-3 -8 -6 -5 -6 6 -1 11 2 17 5 13 3
-3 4 -12 1 -19z m300 -30 c-3 -8 -6 -5 -6 6 -1 11 2 17 5 13 3 -3 4 -12 1 -19z
m-300 -40 c-3 -8 -6 -5 -6 6 -1 11 2 17 5 13 3 -3 4 -12 1 -19z m-246 -41
c-10 -9 -11 -8 -5 6 3 10 9 15 12 12 3 -3 0 -11 -7 -18z m330 -24 c-5 -18 -7
-41 -4 -51 2 -11 0 -23 -6 -26 -12 -8 -16 106 -4 118 14 14 22 -11 14 -41z
m216 -5 c-3 -8 -6 -5 -6 6 -1 11 2 17 5 13 3 -3 4 -12 1 -19z m-544 -1 c3 -8
1 -20 -4 -28 -6 -10 -9 -7 -9 14 0 29 5 35 13 14z m-46 -244 c-3 -10 -5 -4 -5
12 0 17 2 24 5 18 2 -7 2 -21 0 -30z m293 -70 c-10 -16 -11 -14 -6 7 3 14 7
41 8 60 1 32 2 32 5 -7 2 -24 -1 -51 -7 -60z m-285 -9 c4 -28 2 -35 -5 -24
-10 15 -14 78 -5 68 3 -3 8 -23 10 -44z m302 -66 c-3 -8 -6 -5 -6 6 -1 11 2
17 5 13 3 -3 4 -12 1 -19z m-537 -144 c0 -8 -5 -12 -10 -9 -6 4 -8 11 -5 16 9
14 15 11 15 -7z"/>
<path d="M4210 3064 c-17 -9 -20 -14 -9 -14 9 0 22 7 29 15 15 18 13 18 -20
-1z"/>
<path d="M4190 2998 c-12 -22 -12 -22 6 -6 10 10 15 20 12 24 -4 3 -12 -5 -18
-18z"/>
<path d="M9228 3653 c6 -2 18 -2 25 0 6 3 1 5 -13 5 -14 0 -19 -2 -12 -5z"/>
<path d="M7920 3620 c0 -13 30 -13 50 0 11 7 7 10 -17 10 -18 0 -33 -4 -33
-10z"/>
<path d="M5858 3583 c7 -3 16 -2 19 1 4 3 -2 6 -13 5 -11 0 -14 -3 -6 -6z"/>
<path d="M6660 3560 c0 -11 5 -20 10 -20 6 0 10 9 10 20 0 11 -4 20 -10 20 -5
0 -10 -9 -10 -20z"/>
<path d="M0 3225 c0 -9 5 -15 11 -13 14 5 14 21 0 26 -6 2 -11 -4 -11 -13z"/>
<path d="M5072 3215 c0 -16 2 -22 5 -12 2 9 2 23 0 30 -3 6 -5 -1 -5 -18z"/>
<path d="M2855 3170 c3 -5 10 -10 16 -10 5 0 9 5 9 10 0 6 -7 10 -16 10 -8 0
-12 -4 -9 -10z"/>
<path d="M3190 3170 c-9 -6 -10 -10 -3 -10 6 0 15 5 18 10 8 12 4 12 -15 0z"/>
<path d="M4020 3155 c-19 -23 -8 -25 14 -4 11 11 15 19 9 19 -6 0 -16 -7 -23
-15z"/>
<path d="M2800 3126 c0 -13 -6 -27 -12 -29 -19 -8 43 -6 77 3 l30 7 -27 11
c-14 6 -29 16 -33 21 -12 20 -35 12 -35 -13z"/>
<path d="M2913 3137 c-11 -18 10 -20 70 -5 l62 16 -63 -1 c-35 -1 -66 -5 -69
-10z"/>
<path d="M3780 3110 c0 -5 5 -10 10 -10 6 0 10 5 10 10 0 6 -4 10 -10 10 -5 0
-10 -4 -10 -10z"/>
<path d="M4005 3110 c-4 -6 -13 -9 -21 -6 -7 3 -16 1 -19 -5 -4 -5 2 -12 12
-16 10 -4 22 -11 26 -17 5 -7 6 -3 3 8 -4 11 -1 23 6 27 7 4 10 11 6 14 -3 4
-9 1 -13 -5z"/>
<path d="M42 3085 c26 -30 38 -32 38 -6 0 11 -9 21 -22 25 -37 10 -39 7 -16
-19z"/>
<path d="M3858 3103 c6 -2 18 -2 25 0 6 3 1 5 -13 5 -14 0 -19 -2 -12 -5z"/>
<path d="M225 3090 c3 -5 8 -10 11 -10 2 0 4 5 4 10 0 6 -5 10 -11 10 -5 0 -7
-4 -4 -10z"/>
<path d="M440 3070 c0 -5 7 -10 16 -10 8 0 12 5 9 10 -3 6 -10 10 -16 10 -5 0
-9 -4 -9 -10z"/>
<path d="M3440 3056 c0 -40 19 -81 31 -69 8 8 8 22 -1 47 -14 44 -30 56 -30
22z"/>
<path d="M3501 3061 c-12 -21 -11 -29 4 -58 22 -41 35 -42 32 -3 -1 16 -5 30
-9 30 -4 0 -8 12 -10 28 l-3 27 -14 -24z"/>
<path d="M3843 3067 c-71 -8 -83 -13 -83 -28 0 -15 8 -19 40 -19 30 0 40 4 40
16 0 13 10 15 58 12 45 -2 57 0 57 12 0 19 -11 19 -112 7z"/>
<path d="M480 3054 c0 -8 5 -12 10 -9 6 4 8 11 5 16 -9 14 -15 11 -15 -7z"/>
<path d="M3580 3060 c0 -5 5 -10 10 -10 6 0 10 5 10 10 0 6 -4 10 -10 10 -5 0
-10 -4 -10 -10z"/>
<path d="M3383 3040 c-4 -13 -11 -19 -22 -16 -9 3 -22 2 -29 -3 -10 -6 -6 -14
17 -34 30 -25 40 -47 22 -47 -5 0 -11 6 -14 13 -3 8 -7 6 -12 -6 -10 -24 -7
-25 50 -17 28 4 44 8 38 9 -15 1 -18 31 -3 31 6 0 10 11 10 25 0 14 -4 25 -9
25 -5 0 -11 9 -14 20 -7 26 -27 26 -34 0z"/>
<path d="M3600 3014 c0 -18 5 -25 17 -22 24 5 26 21 3 36 -18 11 -20 10 -20
-14z"/>
<path d="M3965 3030 c-4 -6 5 -10 19 -10 14 0 26 5 26 10 0 6 -9 10 -19 10
-11 0 -23 -4 -26 -10z"/>
<path d="M3280 3009 c0 -5 5 -7 10 -4 6 3 10 8 10 11 0 2 -4 4 -10 4 -5 0 -10
-5 -10 -11z"/>
<path d="M3570 3006 c0 -7 7 -27 15 -42 12 -23 15 -25 15 -9 0 31 -11 65 -21
65 -5 0 -9 -6 -9 -14z"/>
<path d="M3880 3010 c0 -5 9 -10 20 -10 11 0 20 -4 20 -9 0 -5 19 -11 43 -12
33 -3 43 -1 43 11 0 12 -10 14 -43 11 -27 -2 -43 1 -43 8 0 6 -9 11 -20 11
-11 0 -20 -4 -20 -10z"/>
<path d="M3831 2970 c-6 -18 -6 -30 0 -30 5 0 9 6 9 14 0 8 7 16 15 20 19 7
20 26 1 26 -8 0 -19 -13 -25 -30z"/>
<path d="M248 2963 c7 -3 16 -2 19 1 4 3 -2 6 -13 5 -11 0 -14 -3 -6 -6z"/>
<path d="M282 2929 c2 -7 10 -15 17 -17 8 -3 12 1 9 9 -2 7 -10 15 -17 17 -8
3 -12 -1 -9 -9z"/>
<path d="M3940 2921 c0 -5 5 -13 10 -16 6 -3 10 -2 10 4 0 5 -4 13 -10 16 -5
3 -10 2 -10 -4z"/>
<path d="M3910 2901 c0 -6 5 -13 10 -16 6 -3 10 1 10 9 0 9 -4 16 -10 16 -5 0
-10 -4 -10 -9z"/>
<path d="M3120 2890 c0 -5 18 -10 40 -10 22 0 40 5 40 10 0 6 -18 10 -40 10
-22 0 -40 -4 -40 -10z"/>
<path d="M3280 2870 c0 -5 -15 -10 -32 -11 l-33 -1 26 -11 c14 -7 24 -18 22
-24 -5 -14 15 -17 41 -7 23 9 20 24 -4 24 -11 0 -20 5 -20 10 0 6 5 10 10 10
6 0 10 5 10 10 0 6 -4 10 -10 10 -5 0 -10 -4 -10 -10z"/>
<path d="M3920 2801 c0 -5 5 -13 10 -16 6 -3 10 -2 10 4 0 5 -4 13 -10 16 -5
3 -10 2 -10 -4z"/>
<path d="M3815 2790 c-28 -7 -27 -8 13 -9 27 -1 41 3 37 9 -7 11 -7 11 -50 0z"/>
</g>
</svg>
